<?xml version="1.0" encoding="UTF-8"?>
<svg xmlns="http://www.w3.org/2000/svg" version="1.1" viewBox="0 0 770 150">
  <defs>
    <style>
      .cls-1 {
        fill: #ff7a3d;
      }
    </style>
  </defs>
  <!-- Generator: Adobe Illustrator 28.7.10, SVG Export Plug-In . SVG Version: 1.2.0 Build 236)  -->
  <g>
    <g id="DESIGN">
      <g>
        <path class="cls-1" d="M70.71,142.89H26.32v-1.49L94.4,11.58c1.68-3.36,2.8-4.48,7.09-4.48h46.82c4.29,0,5.6,1.12,7.46,4.48l67.52,129.81v1.49h-116.2l-11.19-29.47v-3.73h38.05c16.04,0,22.75.19,29.1.75l.56-1.3c-3.17-5.41-5.78-9.51-13.62-25.37l-21.45-42.9c-.56-.93-1.31-1.31-2.61-1.31h-2.24c-1.12,0-1.87.37-2.42,1.31l-50.55,102.02Z"/>
        <path class="cls-1" d="M390.78,88.99c0,32.83-14.92,53.9-55.21,53.9h-60.43c-40.47,0-55.4-21.08-55.4-53.9v-27.98c0-32.83,14.92-53.9,55.4-53.9h60.43c40.29,0,55.21,21.08,55.21,53.9v27.98ZM284.28,107.64h47.75c16.6,0,20.33-6.34,20.33-26.86v-17.91c0-16.6-5.78-21.82-20.33-21.82h-53.53c-16.6,0-20.33,6.34-20.33,26.67v17.9c0,18.65,6.9,22.01,26.11,22.01Z"/>
        <path class="cls-1" d="M495.98,41.05v101.84h-38.42V41.05h-56.33l-12.5-32.45v-1.49h179.99c3.73,0,5.41,1.87,5.41,5.6v35.25l-35.62,13.24h-1.49v-18.09c0-1.49-.56-2.05-2.05-2.05h-38.98Z"/>
        <path class="cls-1" d="M624.87,77.42v65.47h-38.42V12.7c0-3.73,1.68-5.6,5.22-5.6h106.13c33.76,0,45.88,16.6,45.88,43.46v9.7c0,26.3-12.12,42.53-44.39,42.53h-3.92c-3.73,0-6.53,0-9.14-.19v1.31c3.17,2.98,6.53,6.71,9.51,10.44l21.64,27.04v1.49h-43.27l-47.93-65.47h-1.31ZM627.48,41.05c-1.49,0-2.61.93-2.61,3.17v29.66h66.03c10.07,0,14.17-3.36,14.17-14.36v-4.66c0-10.45-4.1-13.8-14.17-13.8h-63.42Z"/>
      </g>
    </g>
  </g>
</svg>