<?xml version="1.0" encoding="UTF-8"?>
<svg xmlns="http://www.w3.org/2000/svg" version="1.1" viewBox="0 0 929 625">
  <defs>
    <style>
      .cls-1 {
        stroke: #ff7a3d;
      }

      .cls-1, .cls-2 {
        fill: none;
        stroke-miterlimit: 10;
      }

      .cls-3 {
        fill: #ff7a3d;
      }

      .cls-4 {
        isolation: isolate;
      }

      .cls-2 {
        stroke: #f47942;
      }
    </style>
  </defs>
  <!-- Generator: Adobe Illustrator 28.7.10, SVG Export Plug-In . SVG Version: 1.2.0 Build 236)  -->
  <g>
    <g id="Layer_1">
      <g id="DESIGN">
        <g class="cls-4">
          <g class="cls-4">
            <path class="cls-3" d="M142.96,345.15l-10.8,35.86c-.53,1.83-1.62,3.37-3.28,4.64-1.66,1.27-3.37,1.91-5.15,1.91h-16.2c-1.44,0-2.6-.43-3.49-1.3-.89-.86-1.33-1.99-1.33-3.38,0-.58.1-1.2.29-1.87l10.73-35.86c.58-1.82,1.68-3.37,3.31-4.64,1.63-1.27,3.36-1.91,5.18-1.91h16.13c1.49,0,2.68.44,3.56,1.33.89.89,1.33,2,1.33,3.35,0,.58-.1,1.2-.29,1.87ZM131.9,349.91c.03-.25.04-.47.04-.67,0-1.04-.53-1.57-1.58-1.57h-5.62c-1.44,0-2.38.74-2.81,2.23l-7.81,26.36c-.07.24-.1.46-.1.65,0,1.05.53,1.58,1.6,1.58h5.52c1.45,0,2.39-.74,2.83-2.21l7.94-26.37Z"/>
            <path class="cls-3" d="M177.16,345.15l-10.8,35.86c-.53,1.83-1.62,3.37-3.28,4.64-1.66,1.27-3.37,1.91-5.15,1.91h-16.2c-1.44,0-2.6-.43-3.49-1.3-.89-.86-1.33-1.99-1.33-3.38,0-.58.1-1.2.29-1.87l10.73-35.86c.58-1.82,1.68-3.37,3.31-4.64,1.63-1.27,3.36-1.91,5.18-1.91h16.13c1.49,0,2.68.44,3.56,1.33.89.89,1.33,2,1.33,3.35,0,.58-.1,1.2-.29,1.87ZM166.1,349.91c.03-.25.04-.47.04-.67,0-1.04-.53-1.57-1.58-1.57h-5.62c-1.44,0-2.38.74-2.81,2.23l-7.81,26.36c-.07.24-.1.46-.1.65,0,1.05.53,1.58,1.6,1.58h5.52c1.45,0,2.39-.74,2.83-2.21l7.94-26.37Z"/>
            <path class="cls-3" d="M211.35,345.15l-10.8,35.86c-.53,1.83-1.62,3.37-3.28,4.64-1.66,1.27-3.37,1.91-5.15,1.91h-16.2c-1.44,0-2.6-.43-3.49-1.3-.89-.86-1.33-1.99-1.33-3.38,0-.58.1-1.2.29-1.87l10.73-35.86c.58-1.82,1.68-3.37,3.31-4.64,1.63-1.27,3.36-1.91,5.18-1.91h16.13c1.49,0,2.68.44,3.56,1.33.89.89,1.33,2,1.33,3.35,0,.58-.1,1.2-.29,1.87ZM200.3,349.91c.03-.25.04-.47.04-.67,0-1.04-.53-1.57-1.58-1.57h-5.62c-1.44,0-2.38.74-2.81,2.23l-7.81,26.36c-.07.24-.1.46-.1.65,0,1.05.53,1.58,1.6,1.58h5.52c1.45,0,2.39-.74,2.83-2.21l7.94-26.37Z"/>
          </g>
        </g>
        <g class="cls-4">
          <g class="cls-4">
            <path class="cls-3" d="M163.61,295.82l-10.41,34.73h-6.87l10.4-34.73h6.87Z"/>
          </g>
        </g>
        <path class="cls-1" d="M57,389.5c0-56.61,45.89-102.5,102.5-102.5s102.5,45.89,102.5,102.5c0,.86-.02,1.71-.04,2.56h24.78c.16-2.5.26-5.02.26-7.56,0-63.79-51.71-115.5-115.5-115.5s-115.5,51.71-115.5,115.5c0,2.54.11,5.06.28,7.56h.78c-.02-.85-.06-1.7-.06-2.56Z"/>
        <path class="cls-2" d="M171.5,263.5c-66.72,0-121,54.28-121,121,0,2.4.09,4.99.29,7.92l.34,5.14h240.77l.33-5.14c.18-2.8.27-5.39.27-7.92,0-66.72-54.28-121-121-121h0Z"/>
        <g class="cls-4">
          <g class="cls-4">
            <path class="cls-3" d="M432.04,338.6l-14.69,49.03h-9.7l14.69-49.03h9.7Z"/>
            <path class="cls-3" d="M465.38,345.15l-2.59,8.57-25.85,24.7h18.36l-2.66,9.07-22.68.07c-1.49,0-2.66-.45-3.53-1.35-.86-.9-1.3-2.06-1.3-3.47,0-.58.1-1.19.3-1.83l.89-3.21,27.54-26.61.38-1.19c.04-.25.05-.47.05-.67,0-1.04-.53-1.57-1.59-1.57h-5.48c-1.44,0-2.38.74-2.81,2.23l-.8,2.67h-9.62l2.23-7.42c.53-1.82,1.62-3.37,3.28-4.64,1.66-1.27,3.37-1.91,5.15-1.91h16.2c1.44,0,2.6.44,3.49,1.33.89.89,1.33,2,1.33,3.35,0,.58-.1,1.2-.29,1.87Z"/>
            <path class="cls-3" d="M498.78,345.15l-10.8,35.86c-.53,1.83-1.62,3.37-3.28,4.64-1.66,1.27-3.37,1.91-5.15,1.91h-16.2c-1.44,0-2.6-.43-3.49-1.3-.89-.86-1.33-1.99-1.33-3.38,0-.58.1-1.2.29-1.87l10.73-35.86c.58-1.82,1.68-3.37,3.31-4.64,1.63-1.27,3.36-1.91,5.18-1.91h16.13c1.49,0,2.68.44,3.56,1.33.89.89,1.33,2,1.33,3.35,0,.58-.1,1.2-.29,1.87ZM487.72,349.91c.03-.25.04-.47.04-.67,0-1.04-.53-1.57-1.58-1.57h-5.62c-1.44,0-2.38.74-2.81,2.23l-7.81,26.36c-.07.24-.1.46-.1.65,0,1.05.53,1.58,1.6,1.58h5.52c1.45,0,2.39-.74,2.83-2.21l7.94-26.37Z"/>
          </g>
        </g>
        <g class="cls-4">
          <g class="cls-4">
            <path class="cls-3" d="M465.48,300.46l-7.6,25.45c-.37,1.26-1.15,2.34-2.32,3.24-1.17.9-2.41,1.35-3.7,1.35h-14.53l1.94-6.43h10.71c1.02,0,1.68-.51,1.99-1.53l1.44-4.64c.03-.14.04-.27.04-.41,0-.75-.37-1.12-1.12-1.12h-10.76l1.89-6.43h10.81c1.05,0,1.71-.51,1.99-1.53l1.37-4.59c.08-.14.12-.29.12-.46,0-.71-.39-1.07-1.17-1.07h-10.76l1.94-6.48,14.54.05c1.02,0,1.84.31,2.47.92.63.61.94,1.39.94,2.35,0,.44-.07.88-.2,1.33Z"/>
          </g>
        </g>
        <g>
          <path class="cls-3" d="M88.24,528.15l-10.8,35.86c-.53,1.83-1.62,3.37-3.28,4.64-1.66,1.27-3.37,1.91-5.15,1.91h-16.2c-1.44,0-2.6-.43-3.49-1.3-.89-.86-1.33-1.99-1.33-3.38,0-.58.1-1.2.29-1.87l10.73-35.86c.58-1.82,1.68-3.37,3.31-4.64,1.63-1.27,3.36-1.91,5.18-1.91h16.13c1.49,0,2.68.44,3.56,1.33.89.89,1.33,2,1.33,3.35,0,.58-.1,1.2-.29,1.87h.01ZM77.18,532.91c.03-.25.04-.47.04-.67,0-1.04-.53-1.57-1.58-1.57h-5.62c-1.44,0-2.38.74-2.81,2.23l-7.81,26.36c-.07.24-.1.46-.1.65,0,1.05.53,1.58,1.6,1.58h5.52c1.45,0,2.39-.74,2.83-2.21l7.94-26.37h-.01Z"/>
          <path class="cls-3" d="M127.91,521.6l-14.69,49.03h-9.7l14.69-49.03h9.7Z"/>
          <path class="cls-3" d="M184.21,528.15l-2.59,8.57-25.85,24.7h18.36l-2.66,9.07-22.68.07c-1.49,0-2.66-.45-3.53-1.35-.86-.9-1.3-2.06-1.3-3.47,0-.58.1-1.19.3-1.83l.89-3.21,27.54-26.61.38-1.19c.04-.25.05-.47.05-.67,0-1.04-.53-1.57-1.59-1.57h-5.48c-1.44,0-2.38.74-2.81,2.23l-.8,2.67h-9.62l2.23-7.42c.53-1.82,1.62-3.37,3.28-4.64,1.66-1.27,3.37-1.91,5.15-1.91h16.2c1.44,0,2.6.44,3.49,1.33.89.89,1.33,2,1.33,3.35,0,.58-.1,1.2-.29,1.87h0Z"/>
          <path class="cls-3" d="M238.72,528.15l-10.73,35.93c-.53,1.78-1.62,3.3-3.28,4.57-1.66,1.27-3.4,1.91-5.22,1.91h-20.52l2.74-9.07h15.12c1.44,0,2.38-.72,2.81-2.16l2.03-6.55c.04-.19.06-.38.06-.58,0-1.06-.53-1.59-1.58-1.59h-15.19l2.66-9.07h15.25c1.49,0,2.42-.72,2.81-2.16l1.93-6.48c.11-.19.17-.41.17-.65,0-1-.55-1.51-1.66-1.51h-15.19l2.74-9.14,20.52.07c1.44,0,2.6.43,3.49,1.3.89.86,1.33,1.97,1.33,3.31,0,.62-.1,1.25-.29,1.87h0Z"/>
          <path class="cls-3" d="M298.33,521.6l-14.69,48.96h-9.69l6.12-20.66h-12.91c-1.44,0-2.61-.43-3.5-1.3-.89-.86-1.33-1.97-1.33-3.31,0-.62.1-1.25.29-1.87l6.48-21.82,9.67.07-5.36,17.78c-.04.19-.06.38-.06.58,0,1.06.53,1.59,1.58,1.59h7.7l5.91-19.94,9.79-.07h0Z"/>
          <path class="cls-3" d="M353.92,528.15l-2.17,7.42h-9.67l.8-2.67c.06-.25.1-.47.1-.67,0-1.04-.53-1.56-1.58-1.56h-5.48c-1.44,0-2.4.74-2.88,2.23l-2.23,7.71h19.39l-7,23.4c-.53,1.83-1.62,3.37-3.28,4.64-1.66,1.27-3.37,1.91-5.15,1.91h-16.2c-1.44,0-2.6-.43-3.49-1.3-.89-.86-1.33-1.99-1.33-3.38,0-.58.1-1.2.29-1.87l3.1-10.37h9.7l-1.68,5.62c-.12.24-.17.46-.17.65,0,1.05.55,1.58,1.66,1.58h5.48c1.44,0,2.38-.74,2.81-2.23l2.79-9.58h-19.39l6.44-21.53c.53-1.82,1.62-3.37,3.28-4.64,1.66-1.27,3.37-1.91,5.15-1.91h16.2c1.49,0,2.66.44,3.53,1.33.86.89,1.3,2,1.3,3.35,0,.58-.1,1.2-.29,1.87h-.03Z"/>
          <path class="cls-3" d="M410.79,528.15l-2.81,9.36h-9.7l1.38-4.62c.12-.25.17-.47.17-.67,0-1.04-.56-1.56-1.67-1.56h-5.52c-1.45,0-2.39.74-2.83,2.21l-2.57,8.52h19.49l-6.7,22.61c-.58,1.83-1.68,3.37-3.31,4.64-1.63,1.27-3.36,1.91-5.18,1.91h-16.2c-1.44,0-2.6-.43-3.49-1.3-.89-.86-1.33-1.99-1.33-3.38,0-.58.1-1.2.29-1.87l10.8-35.86c.53-1.82,1.62-3.37,3.28-4.64,1.66-1.27,3.37-1.91,5.15-1.91h16.2c1.44,0,2.6.44,3.49,1.33s1.33,2,1.33,3.35c0,.58-.1,1.2-.29,1.87h.02ZM394.45,550.47h-9.91l-2.64,8.78c-.03.24-.04.46-.04.65,0,1.06.53,1.59,1.58,1.59h5.46c1.44,0,2.37-.75,2.8-2.24l2.76-8.78h0Z"/>
          <path class="cls-3" d="M468.11,528.15l-1.94,6.12-24.98,36.43h-9.78l25.56-37.79c.04-.25.05-.47.05-.67,0-1.05-.53-1.57-1.59-1.57h-5.48c-1.44,0-2.38.74-2.81,2.23l-2.67,8.79h-9.63l4.1-13.54c.53-1.82,1.62-3.37,3.28-4.64,1.66-1.27,3.37-1.91,5.15-1.91h16.2c1.44,0,2.6.43,3.49,1.3.89.86,1.33,1.97,1.33,3.31,0,.62-.1,1.27-.29,1.94h.01Z"/>
          <path class="cls-3" d="M524.99,528.15l-10.73,35.78c-.53,1.82-1.61,3.37-3.24,4.64-1.63,1.27-3.36,1.91-5.18,1.91l-16.85.07c-1.44,0-2.6-.43-3.49-1.3-.89-.86-1.33-1.99-1.33-3.38,0-.58.1-1.2.29-1.87l10.73-35.86c.58-1.82,1.68-3.37,3.31-4.64,1.63-1.27,3.36-1.91,5.18-1.91l16.78.07c1.44,0,2.6.43,3.49,1.3.89.86,1.33,1.97,1.33,3.31,0,.62-.1,1.25-.29,1.87h0ZM507.91,552.77c.06-.19.08-.38.08-.58,0-1.05-.53-1.58-1.58-1.58h-6.25c-1.34,0-2.23.72-2.66,2.17l-1.94,6.48c-.11.23-.17.44-.17.62,0,1.02.55,1.53,1.65,1.53h6.17c1.39,0,2.3-.7,2.73-2.1l1.96-6.55h.01ZM513.94,532.89c.07-.19.1-.41.1-.65,0-1-.53-1.51-1.58-1.51h-6.19c-1.39,0-2.3.72-2.74,2.16l-2.01,6.48c-.05.24-.07.46-.07.65,0,1.01.55,1.51,1.65,1.51h6.18c1.39,0,2.3-.72,2.73-2.17l1.94-6.48h0Z"/>
          <path class="cls-3" d="M582.08,528.15l-10.73,35.86c-.58,1.83-1.68,3.37-3.31,4.64-1.63,1.27-3.36,1.91-5.18,1.91h-16.2c-1.44,0-2.6-.43-3.49-1.3-.89-.86-1.33-1.99-1.33-3.38,0-.58.1-1.2.29-1.87l2.82-9.36h9.63l-1.39,4.6c-.03.24-.04.46-.04.65,0,1.06.53,1.59,1.58,1.59h5.47c1.44,0,2.38-.74,2.81-2.23l2.54-8.5h-19.43l6.81-22.61c.53-1.82,1.62-3.37,3.28-4.64,1.66-1.27,3.37-1.91,5.15-1.91h16.2c1.44,0,2.6.44,3.49,1.33.89.89,1.33,2,1.33,3.35,0,.58-.1,1.2-.29,1.87h-.01ZM570.97,532.89c.07-.25.1-.47.1-.67,0-1.04-.53-1.56-1.6-1.56h-5.52c-1.45,0-2.39.74-2.83,2.21l-2.58,8.81h9.79l2.63-8.79h.01Z"/>
        </g>
        <g>
          <path class="cls-3" d="M75.47,483.46l-7.65,25.4c-.37,1.29-1.15,2.39-2.32,3.29s-2.39,1.35-3.65,1.35h-11.47c-1.02,0-1.84-.31-2.47-.92-.63-.61-.94-1.41-.94-2.4,0-.41.07-.85.2-1.33l7.6-25.4c.41-1.29,1.19-2.39,2.35-3.29s2.38-1.35,3.67-1.35h11.42c1.05,0,1.89.32,2.52.94.63.63.94,1.42.94,2.37,0,.41-.07.85-.2,1.33h0ZM67.64,486.83c.02-.18.03-.33.03-.48,0-.74-.38-1.11-1.12-1.11h-3.98c-1.02,0-1.68.53-1.99,1.58l-5.53,18.67c-.05.17-.07.32-.07.46,0,.75.38,1.12,1.13,1.12h3.91c1.03,0,1.7-.52,2.01-1.56l5.62-18.68h0Z"/>
          <path class="cls-3" d="M103.57,478.81l-10.41,34.73h-6.87l10.4-34.73h6.88Z"/>
          <path class="cls-3" d="M143.45,483.46l-1.84,6.07-18.31,17.49h13l-1.89,6.43-16.07.05c-1.05,0-1.89-.32-2.5-.96-.61-.64-.92-1.46-.92-2.46,0-.41.07-.84.21-1.29l.63-2.27,19.5-18.85.27-.84c.03-.18.04-.33.04-.48,0-.74-.37-1.11-1.12-1.11h-3.88c-1.02,0-1.69.53-1.99,1.58l-.57,1.89h-6.82l1.58-5.25c.37-1.29,1.15-2.39,2.32-3.29s2.39-1.35,3.65-1.35h11.47c1.02,0,1.84.32,2.47.94.63.63.94,1.42.94,2.37,0,.41-.07.85-.2,1.33h.03Z"/>
          <path class="cls-3" d="M182.06,483.46l-7.6,25.45c-.37,1.26-1.15,2.34-2.32,3.24-1.17.9-2.41,1.35-3.7,1.35h-14.53l1.94-6.43h10.71c1.02,0,1.68-.51,1.99-1.53l1.44-4.64c.03-.14.04-.27.04-.41,0-.75-.38-1.12-1.12-1.12h-10.76l1.88-6.43h10.81c1.05,0,1.71-.51,1.99-1.53l1.37-4.59c.08-.14.12-.29.12-.46,0-.71-.39-1.07-1.17-1.07h-10.76l1.94-6.48,14.54.05c1.02,0,1.84.31,2.47.92s.94,1.39.94,2.35c0,.44-.07.88-.2,1.33h-.02Z"/>
          <path class="cls-3" d="M224.29,478.81l-10.41,34.68h-6.87l4.34-14.64h-9.14c-1.02,0-1.85-.31-2.48-.92-.63-.61-.94-1.39-.94-2.35,0-.44.07-.88.2-1.33l4.59-15.45,6.85.05-3.79,12.59c-.03.14-.04.27-.04.41,0,.75.37,1.12,1.12,1.12h5.45l4.18-14.13,6.94-.05v.02Z"/>
          <path class="cls-3" d="M263.66,483.46l-1.53,5.25h-6.85l.57-1.89c.04-.18.07-.33.07-.47,0-.74-.38-1.1-1.12-1.1h-3.88c-1.02,0-1.7.53-2.04,1.58l-1.58,5.46h13.73l-4.96,16.58c-.38,1.29-1.15,2.39-2.32,3.29-1.17.9-2.39,1.35-3.65,1.35h-11.48c-1.02,0-1.84-.31-2.47-.92-.63-.61-.94-1.41-.94-2.4,0-.41.07-.85.2-1.33l2.2-7.34h6.87l-1.19,3.98c-.08.17-.12.32-.12.46,0,.75.39,1.12,1.17,1.12h3.88c1.02,0,1.68-.53,1.99-1.58l1.98-6.78h-13.74l4.56-15.25c.37-1.29,1.15-2.39,2.32-3.29,1.17-.9,2.39-1.35,3.65-1.35h11.48c1.05,0,1.89.32,2.5.94.61.63.92,1.42.92,2.37,0,.41-.07.85-.2,1.33h-.02Z"/>
          <path class="cls-3" d="M303.95,483.46l-1.99,6.63h-6.87l.98-3.27c.08-.17.12-.33.12-.47,0-.73-.39-1.1-1.18-1.1h-3.91c-1.03,0-1.7.52-2,1.56l-1.82,6.04h13.81l-4.74,16.01c-.41,1.29-1.19,2.39-2.35,3.29s-2.38,1.35-3.67,1.35h-11.47c-1.02,0-1.84-.31-2.47-.92-.63-.61-.94-1.41-.94-2.4,0-.41.07-.85.2-1.33l7.65-25.4c.37-1.29,1.15-2.39,2.32-3.29s2.39-1.35,3.65-1.35h11.47c1.02,0,1.84.32,2.47.94.63.63.94,1.42.94,2.37,0,.41-.07.85-.2,1.33h0ZM292.37,499.26h-7.02l-1.87,6.22c-.02.17-.03.32-.03.46,0,.75.37,1.13,1.12,1.13h3.87c1.02,0,1.68-.53,1.98-1.58l1.95-6.22h0Z"/>
          <path class="cls-3" d="M344.54,483.46l-1.38,4.33-17.7,25.81h-6.93l18.11-26.77c.03-.18.04-.33.04-.48,0-.74-.37-1.11-1.12-1.11h-3.88c-1.02,0-1.69.53-1.99,1.58l-1.89,6.23h-6.82l2.91-9.59c.37-1.29,1.15-2.39,2.32-3.29s2.39-1.35,3.65-1.35h11.48c1.02,0,1.84.31,2.47.92s.94,1.39.94,2.35c0,.44-.07.9-.2,1.38h-.01Z"/>
          <path class="cls-3" d="M384.83,483.46l-7.6,25.35c-.38,1.29-1.14,2.39-2.29,3.29-1.16.9-2.38,1.35-3.67,1.35l-11.93.05c-1.02,0-1.84-.31-2.47-.92-.63-.61-.94-1.41-.94-2.4,0-.41.07-.85.2-1.33l7.6-25.4c.41-1.29,1.19-2.39,2.35-3.29s2.38-1.35,3.67-1.35l11.88.05c1.02,0,1.84.31,2.47.92s.94,1.39.94,2.35c0,.44-.07.88-.2,1.33h-.01ZM372.74,500.89c.04-.14.06-.27.06-.41,0-.75-.37-1.12-1.12-1.12h-4.43c-.95,0-1.58.51-1.88,1.53l-1.37,4.59c-.08.16-.12.31-.12.44,0,.72.39,1.08,1.17,1.08h4.37c.98,0,1.63-.5,1.93-1.49l1.39-4.64v.02ZM377.01,486.82c.05-.14.07-.29.07-.46,0-.71-.37-1.07-1.12-1.07h-4.39c-.99,0-1.63.51-1.94,1.53l-1.43,4.59c-.03.17-.05.32-.05.46,0,.71.39,1.07,1.17,1.07h4.38c.98,0,1.63-.51,1.93-1.54l1.38-4.59h0Z"/>
          <path class="cls-3" d="M425.28,483.46l-7.6,25.4c-.41,1.29-1.19,2.39-2.35,3.29s-2.38,1.35-3.67,1.35h-11.48c-1.02,0-1.84-.31-2.47-.92-.63-.61-.94-1.41-.94-2.4,0-.41.07-.85.2-1.33l2-6.63h6.82l-.98,3.26c-.02.17-.03.32-.03.46,0,.75.37,1.13,1.12,1.13h3.88c1.02,0,1.68-.53,1.99-1.58l1.8-6.02h-13.77l4.82-16.01c.37-1.29,1.15-2.39,2.32-3.29s2.39-1.35,3.65-1.35h11.47c1.02,0,1.84.32,2.47.94.63.63.94,1.42.94,2.37,0,.41-.07.85-.2,1.33h.01ZM417.4,486.82c.05-.18.07-.33.07-.47,0-.74-.38-1.1-1.13-1.1h-3.91c-1.03,0-1.7.52-2,1.56l-1.83,6.24h6.94l1.86-6.23h0Z"/>
        </g>
        <path class="cls-1" d="M354,389.5c0-56.61,45.89-102.5,102.5-102.5s102.5,45.89,102.5,102.5c0,.86-.02,1.71-.04,2.56h24.78c.16-2.5.26-5.02.26-7.56,0-63.79-51.71-115.5-115.5-115.5s-115.5,51.71-115.5,115.5c0,2.54.11,5.06.28,7.56h.78c-.02-.85-.06-1.7-.06-2.56h0Z"/>
        <path class="cls-2" d="M468.5,263.5c-66.72,0-121,54.28-121,121,0,2.4.09,4.99.29,7.92l.34,5.14h240.77l.33-5.14c.18-2.8.27-5.39.27-7.92,0-66.72-54.28-121-121-121h0Z"/>
        <g class="cls-4">
          <g class="cls-4">
            <path class="cls-3" d="M736.02,345.15l-10.73,35.93c-.53,1.78-1.62,3.3-3.28,4.57-1.66,1.27-3.4,1.91-5.22,1.91h-20.52l2.74-9.07h15.12c1.44,0,2.38-.72,2.81-2.16l2.03-6.55c.04-.19.06-.38.06-.58,0-1.06-.53-1.59-1.58-1.59h-15.19l2.66-9.07h15.25c1.49,0,2.42-.72,2.81-2.16l1.93-6.48c.11-.19.17-.41.17-.65,0-1-.55-1.51-1.66-1.51h-15.19l2.74-9.14,20.52.07c1.44,0,2.6.43,3.49,1.3.89.86,1.33,1.97,1.33,3.31,0,.62-.1,1.25-.29,1.87Z"/>
            <path class="cls-3" d="M770.22,345.15l-10.8,35.86c-.53,1.83-1.62,3.37-3.28,4.64-1.66,1.27-3.37,1.91-5.15,1.91h-16.2c-1.44,0-2.6-.43-3.49-1.3-.89-.86-1.33-1.99-1.33-3.38,0-.58.1-1.2.29-1.87l10.73-35.86c.58-1.82,1.68-3.37,3.31-4.64,1.63-1.27,3.36-1.91,5.18-1.91h16.13c1.49,0,2.67.44,3.56,1.33.89.89,1.33,2,1.33,3.35,0,.58-.1,1.2-.29,1.87ZM759.16,349.91c.03-.25.04-.47.04-.67,0-1.04-.53-1.57-1.58-1.57h-5.62c-1.44,0-2.38.74-2.81,2.23l-7.81,26.36c-.07.24-.1.46-.1.65,0,1.05.53,1.58,1.6,1.58h5.52c1.45,0,2.39-.74,2.83-2.21l7.94-26.37Z"/>
            <path class="cls-3" d="M804.42,345.15l-10.8,35.86c-.53,1.83-1.62,3.37-3.28,4.64-1.66,1.27-3.37,1.91-5.15,1.91h-16.2c-1.44,0-2.6-.43-3.49-1.3-.89-.86-1.33-1.99-1.33-3.38,0-.58.1-1.2.29-1.87l10.73-35.86c.58-1.82,1.68-3.37,3.31-4.64,1.63-1.27,3.36-1.91,5.18-1.91h16.13c1.49,0,2.67.44,3.56,1.33.89.89,1.33,2,1.33,3.35,0,.58-.1,1.2-.29,1.87ZM793.36,349.91c.03-.25.04-.47.04-.67,0-1.04-.53-1.57-1.58-1.57h-5.62c-1.44,0-2.38.74-2.81,2.23l-7.81,26.36c-.07.24-.1.46-.1.65,0,1.05.53,1.58,1.6,1.58h5.52c1.45,0,2.39-.74,2.83-2.21l7.94-26.37Z"/>
          </g>
        </g>
        <g class="cls-4">
          <g class="cls-4">
            <path class="cls-3" d="M763.6,300.46l-1.38,4.33-17.7,25.81h-6.93l18.11-26.77c.03-.18.04-.33.04-.48,0-.74-.38-1.11-1.12-1.11h-3.88c-1.02,0-1.69.53-1.99,1.58l-1.89,6.23h-6.82l2.91-9.59c.37-1.29,1.15-2.39,2.32-3.29,1.17-.9,2.39-1.35,3.65-1.35h11.47c1.02,0,1.84.31,2.47.92.63.61.94,1.39.94,2.35,0,.44-.07.9-.2,1.38Z"/>
          </g>
        </g>
        <path class="cls-1" d="M651,389.5c0-56.61,45.89-102.5,102.5-102.5s102.5,45.89,102.5,102.5c0,.86-.02,1.71-.04,2.56h24.78c.16-2.5.26-5.02.26-7.56,0-63.79-51.71-115.5-115.5-115.5s-115.5,51.71-115.5,115.5c0,2.54.11,5.06.28,7.56h.78c-.02-.85-.06-1.7-.06-2.56h0Z"/>
        <path class="cls-2" d="M765.5,263.5c-66.72,0-121,54.28-121,121,0,2.4.09,4.99.29,7.92l.34,5.14h240.77l.33-5.14c.18-2.8.27-5.39.27-7.92,0-66.72-54.28-121-121-121h0Z"/>
        <path class="cls-3" d="M651,389.5c0-56.61,45.89-102.5,102.5-102.5s102.5,45.89,102.5,102.5c0,.86-.02,1.71-.04,2.56h24.78c.16-2.5.26-5.02.26-7.56,0-63.79-51.71-115.5-115.5-115.5s-115.5,51.71-115.5,115.5c0,2.54.11,5.06.28,7.56h.78c-.02-.85-.06-1.7-.06-2.56h0Z"/>
        <path class="cls-3" d="M468.5,269c-63.79,0-115.5,51.71-115.5,115.5,0,2.54.11,5.06.28,7.56h.78c-.02-.85-.06-1.7-.06-2.56,0-56.61,45.89-102.5,102.5-102.5,29.06,0,55.3,12.1,73.95,31.53l16.16-19.1c-20.56-18.89-47.99-30.42-78.11-30.42h0Z"/>
      </g>
      <path d="M468.5,57.5c-68.37,0-124,55.63-124,124,0,2.54.1,5.2.3,8.12l.53,7.94h246.39l.51-7.95c.19-2.89.28-5.54.28-8.11,0-68.37-55.63-124-124-124Z"/>
      <path class="cls-1" d="M354,186.5c0-56.61,45.89-102.5,102.5-102.5s102.5,45.89,102.5,102.5c0,.86-.02,1.71-.04,2.56h24.78c.16-2.5.26-5.02.26-7.56,0-63.79-51.71-115.5-115.5-115.5s-115.5,51.71-115.5,115.5c0,2.54.11,5.06.28,7.56h.78c-.02-.85-.06-1.7-.06-2.56h0Z"/>
      <path class="cls-2" d="M468.5,60.5c-66.72,0-121,54.28-121,121,0,2.4.09,4.99.29,7.92l.34,5.14h240.77l.33-5.14c.18-2.8.27-5.39.27-7.92,0-66.72-54.28-121-121-121h0Z"/>
    </g>
  </g>
</svg>